<svg width="110" height="90" fill="none" xmlns="http://www.w3.org/2000/svg"><path fill="#D9D9D9" d="M0 0h110v90H0z"/><path d="M30 16h46v21" stroke="#000" stroke-width="3"/><path d="M36.5 32.5h5M43.5 32.5H49M50.5 32.5h6M57.5 32.5h6" stroke="#000" stroke-width="2"/><circle cx="67.5" cy="45" r="11.5" stroke="#000" stroke-width="3"/><path d="m60 44.5 5 4.5 8.5-9M56 48.5H31.5V16" stroke="#000" stroke-width="3"/><path d="M31.5 26.5H76" stroke="#000" stroke-width="5"/><path d="M7.057 78v-8.727h2.949c.684 0 1.244.123 1.679.37.437.245.761.576.971.993.21.418.316.884.316 1.398 0 .514-.105.982-.316 1.402-.207.42-.528.756-.963 1.006-.434.247-.991.37-1.67.37H7.909v-.937h2.08c.468 0 .845-.081 1.129-.243.284-.162.49-.38.618-.656a2.19 2.19 0 0 0 .196-.942c0-.35-.066-.662-.196-.937a1.398 1.398 0 0 0-.622-.648c-.287-.16-.668-.239-1.142-.239H8.114V78H7.057Zm7.084 0h-1.108l3.205-8.727h1.09L20.534 78h-1.108l-2.608-7.347h-.068L14.141 78Zm.41-3.41h4.465v.938H14.55v-.937ZM28.504 72H27.45a2.197 2.197 0 0 0-.891-1.38 2.387 2.387 0 0 0-.729-.359 2.909 2.909 0 0 0-.835-.119c-.528 0-1.007.134-1.436.4-.426.268-.766.661-1.019 1.181-.25.52-.375 1.158-.375 1.913 0 .756.125 1.394.375 1.914.253.52.593.913 1.019 1.18.429.267.908.4 1.436.4.29 0 .568-.04.835-.119.267-.08.51-.197.729-.353a2.245 2.245 0 0 0 .89-1.385h1.057a3.52 3.52 0 0 1-.434 1.197 3.274 3.274 0 0 1-1.837 1.458c-.386.127-.8.191-1.24.191-.744 0-1.406-.181-1.986-.545-.58-.364-1.035-.88-1.368-1.551-.332-.67-.498-1.466-.498-2.387 0-.92.166-1.715.498-2.386.333-.67.789-1.188 1.368-1.551.58-.364 1.242-.546 1.986-.546.44 0 .854.064 1.24.192.39.128.74.316 1.053.563.312.244.573.542.784.895.21.349.355.748.434 1.197Zm1.793-2.727h1.057v2.915c0 .431.075.77.226 1.018.15.244.364.418.64.52.275.1.6.149.975.149.236 0 .465-.008.686-.026a9.162 9.162 0 0 0 1.87-.366v.954c-.19.06-.378.114-.566.162-.185.049-.378.09-.58.124a7.783 7.783 0 0 1-.643.081c-.23.017-.486.025-.767.025-.602 0-1.12-.086-1.555-.26a2 2 0 0 1-.997-.839c-.23-.386-.346-.9-.346-1.543v-2.914Zm5.319 0h1.056V78h-1.056v-8.727ZM38.79 78v-8.727h5.267v.937h-4.21v2.95h3.938v.937h-3.938v2.966h4.278V78h-5.335Zm6.695-7.79v-.937h6.545v.937h-2.744V78H48.23v-7.79h-2.744ZM62.168 78l-3-4.006h-1.074V78h-1.057v-8.727h1.057v3.784h.46l3.495-3.784h1.261l-3.528 3.835L63.429 78h-1.261Zm2.985 0h-1.108l3.205-8.727h1.09L71.546 78h-1.108l-2.608-7.347h-.068L65.153 78Zm.41-3.41h4.465v.938h-4.466v-.937ZM72.903 78v-8.727h2.95c.684 0 1.244.123 1.678.37.438.245.762.576.972.993.21.418.315.884.315 1.398 0 .514-.105.982-.315 1.402-.208.42-.529.756-.963 1.006-.435.247-.992.37-1.67.37h-2.114v-.937h2.08c.468 0 .844-.081 1.129-.243.284-.162.49-.38.618-.656.13-.279.195-.593.195-.942 0-.35-.065-.662-.195-.937a1.399 1.399 0 0 0-.623-.648c-.287-.16-.667-.239-1.142-.239h-1.858V78h-1.056Zm7.14-7.79v-.937h6.546v.937h-2.745V78H82.79v-7.79h-2.745Zm15.177 3.426c0 .92-.166 1.716-.498 2.387-.333.67-.789 1.187-1.368 1.55-.58.365-1.242.546-1.986.546s-1.406-.181-1.986-.545c-.58-.364-1.035-.88-1.368-1.551-.332-.67-.498-1.466-.498-2.387 0-.92.166-1.715.498-2.386.333-.67.789-1.188 1.368-1.551.58-.364 1.242-.546 1.986-.546s1.406.182 1.986.546c.58.364 1.035.88 1.368 1.551.332.67.498 1.466.498 2.386Zm-1.023 0c0-.755-.126-1.393-.379-1.913-.25-.52-.59-.913-1.018-1.18a2.641 2.641 0 0 0-1.432-.401c-.528 0-1.007.134-1.436.4-.426.268-.766.661-1.019 1.181-.25.52-.375 1.158-.375 1.913 0 .756.125 1.394.375 1.914.253.52.593.913 1.019 1.18.429.267.908.4 1.436.4a2.64 2.64 0 0 0 1.432-.4c.429-.267.768-.66 1.018-1.18.253-.52.38-1.158.38-1.914Zm2.8-4.363h1.04v6.869h.085l4.773-6.87h1.023V78h-1.057v-6.852h-.085L98.021 78h-1.023v-8.727Zm4.296-2.182h.937c0 .46-.159.837-.477 1.13-.318.292-.75.438-1.296.438-.537 0-.964-.146-1.282-.439-.316-.292-.473-.669-.473-1.13h.937c0 .222.061.417.183.585.126.167.337.251.635.251.299 0 .512-.084.64-.251a.926.926 0 0 0 .196-.584Z" fill="#000"/></svg>