<svg width="110" height="90" fill="none" xmlns="http://www.w3.org/2000/svg"><path fill="#D9D9D9" d="M0 0h110v90H0z"/><path d="M41 31.5h5M41 37h5M41 42.5h5M49 31.5h19M49 37h19M49 42.5h19M68 51h8M69 57.5l7-7L77 14H41.5M69 57.5v-8m0 8H33V14h8.5m0 0v4" stroke="#000" stroke-width="3"/><path stroke="#000" stroke-width="2" d="M40 18h3v3h-3zM67 18h3v3h-3z"/><path d="M71.314 53.253c-.679 0-1.366-1.335-.952-.714" stroke="#000" stroke-width="3" stroke-linecap="round"/><path d="M50.5 14.5v3M59.5 14v3.5M68.5 14v3.5" stroke="#000" stroke-width="3"/><path stroke="#000" stroke-width="2" d="M58 18h3v3h-3zM49 18h3v3h-3z"/><path d="M21.057 78v-8.727h5.267v.937h-4.21v2.728h2.215c.625 0 1.152.102 1.581.306a2.2 2.2 0 0 1 .98.865c.225.373.337.812.337 1.317 0 .506-.112.952-.336 1.338a2.287 2.287 0 0 1-.98.908c-.43.219-.957.328-1.582.328h-3.272Zm1.057-.92h2.215c.398 0 .735-.08 1.01-.24a1.66 1.66 0 0 0 .631-.621c.145-.256.218-.526.218-.81 0-.418-.161-.777-.482-1.078-.321-.304-.78-.456-1.377-.456h-2.215v3.204Zm9.802-8.216-2.813 10.448h-.92l2.812-10.448h.92ZM33.244 78v-8.727h1.057v3.886h4.654v-3.886h1.056V78h-1.056v-3.903H34.3V78h-1.057Zm12.258 0v-8.727h2.949c.685 0 1.244.123 1.679.37.438.245.761.576.972.993.21.418.315.884.315 1.398 0 .514-.105.982-.315 1.402-.208.42-.529.756-.963 1.006-.435.247-.992.37-1.671.37h-2.114v-.937h2.08c.469 0 .845-.081 1.13-.243.283-.162.49-.38.617-.656a2.19 2.19 0 0 0 .196-.942c0-.35-.065-.662-.196-.937a1.398 1.398 0 0 0-.622-.648c-.287-.16-.668-.239-1.142-.239h-1.858V78h-1.057Zm7.085 0h-1.108l3.204-8.727h1.091L58.98 78H57.87l-2.608-7.347h-.068L52.587 78Zm.409-3.41h4.466v.938h-4.466v-.937ZM66.95 72h-1.057a2.197 2.197 0 0 0-.89-1.38 2.387 2.387 0 0 0-.73-.359 2.908 2.908 0 0 0-.835-.119c-.528 0-1.007.134-1.436.4-.426.268-.765.661-1.018 1.181-.25.52-.375 1.158-.375 1.913 0 .756.125 1.394.375 1.914.253.52.592.913 1.018 1.18.43.267.908.4 1.436.4.29 0 .568-.04.836-.119.266-.08.51-.197.728-.353a2.245 2.245 0 0 0 .89-1.385h1.058a3.52 3.52 0 0 1-.435 1.197 3.273 3.273 0 0 1-1.837 1.458c-.386.127-.8.191-1.24.191-.744 0-1.406-.181-1.986-.545-.58-.364-1.035-.88-1.367-1.551-.333-.67-.499-1.466-.499-2.387 0-.92.166-1.715.499-2.386.332-.67.788-1.188 1.367-1.551.58-.364 1.242-.546 1.986-.546.44 0 .854.064 1.24.192.39.128.74.316 1.053.563.312.244.574.542.784.895.21.349.355.748.435 1.197Zm1.793-2.727H69.8v2.915c0 .431.076.77.226 1.018.15.244.364.418.64.52.275.1.6.149.975.149.236 0 .465-.008.686-.026a9.162 9.162 0 0 0 1.871-.366v.954c-.19.06-.38.114-.567.162-.184.049-.377.09-.58.124a7.783 7.783 0 0 1-.643.081c-.23.017-.485.025-.767.025-.602 0-1.12-.086-1.555-.26a2 2 0 0 1-.997-.839c-.23-.386-.345-.9-.345-1.543v-2.914Zm5.318 0h1.057V78h-1.057v-8.727ZM77.237 78v-8.727h5.267v.937h-4.21v2.95h3.937v.937h-3.938v2.966h4.279V78h-5.335Zm6.694-7.79v-.937h6.546v.937h-2.745V78h-1.057v-7.79h-2.744Z" fill="#000"/></svg>