<svg width="110" height="90" fill="none" xmlns="http://www.w3.org/2000/svg"><path fill="#D9D9D9" d="M0 0h110v90H0z"/><path d="M33.5 41H71M37 39.5V17c.167-.667.9-2 2.5-2h26c.833 0 2.5.5 2.5 2.5v22M33 53v-2.5M72 53v-2.5" stroke="#000" stroke-width="3"/><path d="M51 50.5H32c-1 0-3-.6-3-3v-17c0-.833.7-2.5 3.5-2.5h3M69.5 28h4c.833.167 2.5 1.1 2.5 3.5v17c-.167.833-1 2-2.5 2H51M29.5 54.5h7M68.5 54.5h7" stroke="#000" stroke-width="3"/><circle cx="46.5" cy="22.5" r="2" fill="#000"/><circle cx="58.5" cy="22.5" r="2" fill="#000"/><circle cx="46.5" cy="31.5" r="2" fill="#000"/><circle cx="58.5" cy="31.5" r="2" fill="#000"/><path d="m14.188 78-3-4.006h-1.074V78H9.057v-8.727h1.057v3.784h.46l3.494-3.784h1.261l-3.528 3.835L15.45 78h-1.261Zm9.58-4.364c0 .92-.166 1.716-.498 2.387-.333.67-.789 1.187-1.368 1.55-.58.365-1.242.546-1.986.546s-1.406-.181-1.986-.545c-.58-.364-1.035-.88-1.368-1.551-.332-.67-.498-1.466-.498-2.387 0-.92.166-1.715.498-2.386.332-.67.788-1.188 1.368-1.551.58-.364 1.242-.546 1.986-.546s1.406.182 1.986.546c.58.364 1.035.88 1.367 1.551.333.67.5 1.466.5 2.386Zm-1.023 0c0-.755-.126-1.393-.379-1.913-.25-.52-.59-.913-1.018-1.18a2.642 2.642 0 0 0-1.432-.401c-.529 0-1.007.134-1.436.4-.426.268-.766.661-1.019 1.181-.25.52-.375 1.158-.375 1.913 0 .756.125 1.394.375 1.914.253.52.593.913 1.019 1.18.429.267.907.4 1.436.4a2.64 2.64 0 0 0 1.432-.4c.429-.267.768-.66 1.018-1.18.253-.52.38-1.158.38-1.914Zm2.8-4.363h1.261l2.966 7.244h.103l2.966-7.244h1.26V78h-.988v-6.63h-.085L30.301 78h-.955l-2.727-6.63h-.085V78h-.989v-8.727ZM36.221 78v-8.727h1.057v3.886h4.653v-3.886h1.057V78H41.93v-3.903h-4.653V78H36.22Zm9.48.068a.738.738 0 0 1-.542-.226.738.738 0 0 1-.226-.54c0-.211.075-.392.226-.542a.739.739 0 0 1 .541-.226c.21 0 .39.075.541.226.151.15.226.33.226.541a.796.796 0 0 1-.384.665.73.73 0 0 1-.383.102Zm13.446-4.432c0 .92-.166 1.716-.499 2.387-.332.67-.788 1.187-1.367 1.55-.58.365-1.242.546-1.986.546-.745 0-1.407-.181-1.986-.545-.58-.364-1.036-.88-1.368-1.551-.332-.67-.498-1.466-.498-2.387 0-.92.166-1.715.498-2.386.332-.67.788-1.188 1.368-1.551.58-.364 1.241-.546 1.986-.546.744 0 1.406.182 1.986.546.58.364 1.035.88 1.367 1.551.333.67.499 1.466.499 2.386Zm-1.023 0c0-.755-.126-1.393-.379-1.913-.25-.52-.59-.913-1.018-1.18a2.642 2.642 0 0 0-1.432-.401c-.529 0-1.007.134-1.436.4-.427.268-.766.661-1.019 1.181-.25.52-.375 1.158-.375 1.913 0 .756.125 1.394.375 1.914.253.52.592.913 1.019 1.18.429.267.907.4 1.436.4a2.64 2.64 0 0 0 1.432-.4c.429-.267.768-.66 1.018-1.18.253-.52.38-1.158.38-1.914Zm1.96-3.426v-.937h6.545v.937h-2.744V78h-1.057v-7.79h-2.745Zm7.426 9.904v-3.052h.562c.194-.176.375-.424.546-.745.173-.324.32-.756.439-1.296.122-.542.203-1.231.243-2.067l.187-3.681h5.182v7.79h1.006v3.034h-1.006V78h-6.153v2.114H67.51Zm1.824-3.052h4.33V70.21h-3.222l-.137 2.745a15.956 15.956 0 0 1-.179 1.73c-.085.514-.194.97-.328 1.368a4.716 4.716 0 0 1-.464 1.01Zm8.722-4.124h2.488c.625 0 1.152.102 1.581.306a2.2 2.2 0 0 1 .98.865c.225.373.337.812.337 1.317 0 .506-.112.952-.336 1.338a2.287 2.287 0 0 1-.98.908c-.43.219-.957.328-1.582.328h-3.272v-8.727h1.056v7.806h2.216c.398 0 .735-.079 1.01-.238.279-.162.489-.37.631-.622.145-.256.217-.526.217-.81 0-.418-.16-.777-.481-1.078-.321-.304-.78-.456-1.377-.456h-2.488v-.938Zm7.295-3.665V78h-1.057v-8.727h1.057Zm2.627 0 2.25 3.63h.069l2.25-3.63h1.244l-2.745 4.363L93.791 78h-1.245l-2.25-3.563h-.068L87.978 78h-1.244l2.813-4.364-2.813-4.363h1.244ZM95.524 78h-1.108l3.205-8.727h1.09L101.917 78h-1.108L98.2 70.653h-.068L95.524 78Zm.41-3.41h4.465v.938h-4.466v-.937Z" fill="#000"/></svg>