<svg width="110" height="90" fill="none" xmlns="http://www.w3.org/2000/svg"><path fill="#D9D9D9" d="M0 0h110v90H0z"/><circle cx="55" cy="37" r="24.5" stroke="#000" stroke-width="3"/><path d="m36.5 27 4 16.5h2l3.5-16h1.5l3 16H53L57 27M72.5 27.5c-17-2.5-16 19 0 16.5" stroke="#000" stroke-width="2"/><path d="m47.642 78-2.386-8.727h1.074l1.823 7.108h.086l1.858-7.108h1.193l1.858 7.108h.085l1.824-7.108h1.074L53.744 78h-1.09l-1.927-6.954h-.068L48.733 78h-1.091Zm16.418-6h-1.057a2.197 2.197 0 0 0-.89-1.38 2.387 2.387 0 0 0-.73-.359 2.909 2.909 0 0 0-.834-.119c-.529 0-1.008.134-1.436.4-.427.268-.766.661-1.019 1.181-.25.52-.375 1.158-.375 1.913 0 .756.125 1.394.375 1.914.253.52.592.913 1.019 1.18.428.267.907.4 1.436.4.29 0 .568-.04.835-.119.267-.08.51-.197.729-.353a2.245 2.245 0 0 0 .89-1.385h1.057a3.52 3.52 0 0 1-.435 1.197 3.274 3.274 0 0 1-1.836 1.458c-.387.127-.8.191-1.24.191-.745 0-1.407-.181-1.986-.545-.58-.364-1.036-.88-1.368-1.551-.332-.67-.499-1.466-.499-2.387 0-.92.167-1.715.499-2.386.332-.67.788-1.188 1.368-1.551.58-.364 1.241-.546 1.986-.546.44 0 .853.064 1.24.192.389.128.74.316 1.052.563.313.244.574.542.784.895.21.349.355.748.435 1.197Z" fill="#000"/></svg>