<svg width="110" height="90" fill="none" xmlns="http://www.w3.org/2000/svg"><path fill="#D9D9D9" d="M0 0h110v90H0z"/><path d="M31 27.718c6.833-7.334 26-17.6 48 0" stroke="#000" stroke-width="3"/><path d="M36.5 33.218c5.5-5.667 20.6-13.6 37 0" stroke="#000" stroke-width="3"/><path d="M42 38.718c4-4 14.8-9.6 26 0M48 44.718c2.333-2.834 8.5-6.8 14.5 0" stroke="#000" stroke-width="3"/><circle cx="55.5" cy="48.218" r="3" fill="#000"/><path d="m42.642 78-2.386-8.727h1.074l1.823 7.108h.086l1.858-7.108h1.193l1.858 7.108h.085l1.824-7.108h1.074L48.744 78h-1.09l-1.927-6.954h-.068L43.733 78h-1.091Zm10.862-8.727V78h-1.057v-8.727h1.057Zm5.733 3.895v.937h-3.818v-.937h3.818ZM61.143 78v-8.727h5.233v.937H62.2v2.95h3.784v.937H62.2V78h-1.057Zm8.1-8.727V78h-1.057v-8.727h1.056Z" fill="#000"/></svg>