<svg width="296" height="37" viewBox="0 0 296 37" fill="none" xmlns="http://www.w3.org/2000/svg">
<path d="M33.47 36H20.6L19.83 27.255H9.655L5.75 36H0.415L16.64 1.075H29.675L33.47 36ZM11.47 23.24H19.445L18.18 8.28L11.47 23.24ZM56.2787 12.35H67.4987L62.4387 36H53.5287L52.5387 32.48H52.2087C51.2553 33.6167 49.9537 34.57 48.3037 35.34C46.6903 36.0733 45.0587 36.44 43.4087 36.44C41.2087 36.44 39.4853 35.89 38.2387 34.79C36.992 33.6533 36.3687 32.1867 36.3687 30.39C36.3687 29.4733 36.5153 28.3367 36.8087 26.98C37.1387 25.5867 37.432 24.285 37.6887 23.075L39.9987 12.35H51.1637L48.4137 25.22C48.3403 25.5133 48.267 25.8617 48.1937 26.265C48.1203 26.6683 48.047 27.0717 47.9737 27.475C47.9003 27.8417 47.827 28.2083 47.7537 28.575C47.717 28.905 47.6987 29.18 47.6987 29.4C47.6987 29.95 47.8087 30.4267 48.0287 30.83C48.2853 31.1967 48.7253 31.38 49.3487 31.38C50.0087 31.38 50.632 31.16 51.2187 30.72C51.8053 30.28 52.2637 29.8583 52.5937 29.455L56.2787 12.35ZM70.4665 12.35C71.8232 12.0567 73.0149 11.7267 74.0415 11.36C75.0682 10.9933 76.0032 10.535 76.8465 9.985C77.7265 9.435 78.5515 8.75666 79.3215 7.95C80.1282 7.14333 80.9899 6.15333 81.9065 4.98H87.5715L85.9765 12.35H90.2665L89.5515 16.035H85.2065L82.9515 26.76C82.7682 27.6033 82.6215 28.355 82.5115 29.015C82.4015 29.675 82.3465 30.1883 82.3465 30.555C82.3465 31.2883 82.6032 31.7467 83.1165 31.93C83.6665 32.1133 84.6749 32.205 86.1415 32.205L85.3165 36C85.0599 36.0733 84.6565 36.1283 84.1065 36.165C83.5932 36.2017 83.0065 36.2383 82.3465 36.275C81.7232 36.3483 81.0632 36.385 80.3665 36.385C79.7065 36.4217 79.1199 36.44 78.6065 36.44C77.6899 36.44 76.7915 36.3667 75.9115 36.22C75.0315 36.11 74.2432 35.8717 73.5465 35.505C72.8499 35.1017 72.2815 34.5333 71.8415 33.8C71.4382 33.0667 71.2365 32.0767 71.2365 30.83C71.2365 30.39 71.2549 29.84 71.2915 29.18C71.3649 28.52 71.4932 27.7867 71.6765 26.98L73.9865 16.035H69.6965L70.4665 12.35ZM106.316 11.745C110.68 11.745 113.851 12.515 115.831 14.055C117.921 15.6683 118.966 18.345 118.966 22.085C118.966 24.395 118.581 26.485 117.811 28.355C117.041 30.1883 115.96 31.71 114.566 32.92C111.78 35.2667 107.746 36.44 102.466 36.44C97.9562 36.44 94.7295 35.5783 92.7862 33.855C90.6962 32.0583 89.6512 29.3633 89.6512 25.77C89.6512 23.3867 90.1279 21.2233 91.0812 19.28C92.0712 17.3367 93.4829 15.7233 95.3162 14.44C97.9929 12.6433 101.66 11.745 106.316 11.745ZM102.576 32.7C103.493 32.7 104.281 32.1867 104.941 31.16C105.638 30.1333 106.188 28.8867 106.591 27.42C106.995 25.9167 107.288 24.3767 107.471 22.8C107.691 21.1867 107.801 19.7933 107.801 18.62C107.801 17.5933 107.691 16.8233 107.471 16.31C107.288 15.76 106.866 15.485 106.206 15.485C105.216 15.485 104.355 16.0167 103.621 17.08C102.925 18.1433 102.356 19.4083 101.916 20.875C101.476 22.3417 101.146 23.845 100.926 25.385C100.743 26.925 100.651 28.1717 100.651 29.125C100.651 31.5083 101.293 32.7 102.576 32.7ZM151.271 33.03C150.354 33.47 149.401 33.91 148.411 34.35C147.458 34.7533 146.431 35.12 145.331 35.45C144.231 35.7433 143.021 35.9817 141.701 36.165C140.418 36.3483 139.006 36.44 137.466 36.44C132.553 36.44 128.758 35.34 126.081 33.14C123.441 30.94 122.121 27.2733 122.121 22.14C122.121 19.17 122.579 16.3833 123.496 13.78C124.413 11.14 125.769 8.84833 127.566 6.905C129.363 4.925 131.581 3.36667 134.221 2.23C136.861 1.09333 139.886 0.524998 143.296 0.524998C144.909 0.524998 146.376 0.634997 147.696 0.854997C149.053 1.075 150.263 1.36833 151.326 1.735C152.426 2.065 153.398 2.43167 154.241 2.835C155.121 3.23833 155.909 3.62333 156.606 3.99L154.626 14.22H144.726C144.763 13.8533 144.799 13.3767 144.836 12.79C144.909 12.2033 144.964 11.6167 145.001 11.03C145.038 10.4067 145.074 9.80167 145.111 9.215C145.148 8.62833 145.166 8.13333 145.166 7.73C145.166 7.43667 145.148 7.10667 145.111 6.74C145.074 6.33667 144.983 5.95166 144.836 5.585C144.689 5.21833 144.451 4.925 144.121 4.705C143.828 4.44833 143.424 4.32 142.911 4.32C141.958 4.32 141.078 4.72333 140.271 5.53C139.501 6.3 138.804 7.345 138.181 8.665C137.558 9.94833 137.008 11.415 136.531 13.065C136.054 14.715 135.651 16.4017 135.321 18.125C135.028 19.8117 134.789 21.48 134.606 23.13C134.459 24.78 134.386 26.2283 134.386 27.475C134.386 27.8417 134.404 28.3 134.441 28.85C134.478 29.4 134.588 29.9317 134.771 30.445C134.954 30.9583 135.229 31.3983 135.596 31.765C135.999 32.1317 136.531 32.315 137.191 32.315C138.328 32.315 139.428 31.6183 140.491 30.225C141.554 28.795 142.489 26.265 143.296 22.635H153.471L151.271 33.03ZM167.368 24.945C167.221 25.7517 167.111 26.5217 167.038 27.255C167.001 27.9883 166.983 28.6483 166.983 29.235C166.983 29.565 167.001 29.9317 167.038 30.335C167.075 30.7383 167.148 31.1233 167.258 31.49C167.405 31.82 167.588 32.1133 167.808 32.37C168.065 32.59 168.413 32.7 168.853 32.7C169.183 32.7 169.55 32.59 169.953 32.37C170.393 32.15 170.815 31.8383 171.218 31.435C171.658 31.0317 172.061 30.5367 172.428 29.95C172.831 29.3633 173.143 28.7033 173.363 27.97H182.383L180.953 33.855C180.22 34.3317 179.376 34.735 178.423 35.065C177.47 35.395 176.461 35.67 175.398 35.89C174.335 36.0733 173.253 36.2017 172.153 36.275C171.053 36.385 170.008 36.44 169.018 36.44C167.185 36.44 165.48 36.275 163.903 35.945C162.326 35.615 160.951 35.0467 159.778 34.24C158.605 33.4333 157.67 32.37 156.973 31.05C156.313 29.6933 155.983 28.025 155.983 26.045C155.983 24.2483 156.258 22.4883 156.808 20.765C157.395 19.0417 158.348 17.52 159.668 16.2C161.025 14.8433 162.821 13.7617 165.058 12.955C167.331 12.1483 170.155 11.745 173.528 11.745C177.195 11.745 179.945 12.3133 181.778 13.45C183.648 14.5867 184.583 16.365 184.583 18.785C184.583 19.775 184.436 20.8567 184.143 22.03C183.85 23.1667 183.41 24.1383 182.823 24.945H167.368ZM174.683 18.4C174.683 17.2633 174.5 16.4933 174.133 16.09C173.766 15.6867 173.326 15.485 172.813 15.485C172.226 15.485 171.676 15.6867 171.163 16.09C170.686 16.4567 170.246 16.97 169.843 17.63C169.44 18.2533 169.073 18.9867 168.743 19.83C168.413 20.6367 168.138 21.4983 167.918 22.415H174.188C174.261 21.975 174.335 21.5167 174.408 21.04C174.481 20.6367 174.536 20.1967 174.573 19.72C174.646 19.2433 174.683 18.8033 174.683 18.4ZM200.196 15.87C200.966 15.1367 201.828 14.4583 202.781 13.835C203.624 13.3217 204.614 12.845 205.751 12.405C206.888 11.965 208.153 11.745 209.546 11.745C211.453 11.745 213.029 12.24 214.276 13.23C215.523 14.1833 216.146 15.5033 216.146 17.19C216.146 17.6667 216.091 18.2533 215.981 18.95C215.871 19.61 215.743 20.3067 215.596 21.04C215.449 21.7733 215.284 22.525 215.101 23.295C214.954 24.0283 214.826 24.6883 214.716 25.275L212.406 36H201.241L204.266 21.645C204.339 21.1683 204.431 20.6917 204.541 20.215C204.651 19.7017 204.706 19.2433 204.706 18.84C204.706 18.29 204.559 17.85 204.266 17.52C204.009 17.1533 203.606 16.97 203.056 16.97C202.396 16.97 201.754 17.2083 201.131 17.685C200.544 18.1617 200.086 18.565 199.756 18.895L196.126 36H184.906L189.911 12.35H198.876L199.866 15.87H200.196ZM219.944 12.35C221.301 12.0567 222.492 11.7267 223.519 11.36C224.546 10.9933 225.481 10.535 226.324 9.985C227.204 9.435 228.029 8.75666 228.799 7.95C229.606 7.14333 230.467 6.15333 231.384 4.98H237.049L235.454 12.35H239.744L239.029 16.035H234.684L232.429 26.76C232.246 27.6033 232.099 28.355 231.989 29.015C231.879 29.675 231.824 30.1883 231.824 30.555C231.824 31.2883 232.081 31.7467 232.594 31.93C233.144 32.1133 234.152 32.205 235.619 32.205L234.794 36C234.537 36.0733 234.134 36.1283 233.584 36.165C233.071 36.2017 232.484 36.2383 231.824 36.275C231.201 36.3483 230.541 36.385 229.844 36.385C229.184 36.4217 228.597 36.44 228.084 36.44C227.167 36.44 226.269 36.3667 225.389 36.22C224.509 36.11 223.721 35.8717 223.024 35.505C222.327 35.1017 221.759 34.5333 221.319 33.8C220.916 33.0667 220.714 32.0767 220.714 30.83C220.714 30.39 220.732 29.84 220.769 29.18C220.842 28.52 220.971 27.7867 221.154 26.98L223.464 16.035H219.174L219.944 12.35ZM250.459 24.945C250.312 25.7517 250.202 26.5217 250.129 27.255C250.092 27.9883 250.074 28.6483 250.074 29.235C250.074 29.565 250.092 29.9317 250.129 30.335C250.165 30.7383 250.239 31.1233 250.349 31.49C250.495 31.82 250.679 32.1133 250.899 32.37C251.155 32.59 251.504 32.7 251.944 32.7C252.274 32.7 252.64 32.59 253.044 32.37C253.484 32.15 253.905 31.8383 254.309 31.435C254.749 31.0317 255.152 30.5367 255.519 29.95C255.922 29.3633 256.234 28.7033 256.454 27.97H265.474L264.044 33.855C263.31 34.3317 262.467 34.735 261.514 35.065C260.56 35.395 259.552 35.67 258.489 35.89C257.425 36.0733 256.344 36.2017 255.244 36.275C254.144 36.385 253.099 36.44 252.109 36.44C250.275 36.44 248.57 36.275 246.994 35.945C245.417 35.615 244.042 35.0467 242.869 34.24C241.695 33.4333 240.76 32.37 240.064 31.05C239.404 29.6933 239.074 28.025 239.074 26.045C239.074 24.2483 239.349 22.4883 239.899 20.765C240.485 19.0417 241.439 17.52 242.759 16.2C244.115 14.8433 245.912 13.7617 248.149 12.955C250.422 12.1483 253.245 11.745 256.619 11.745C260.285 11.745 263.035 12.3133 264.869 13.45C266.739 14.5867 267.674 16.365 267.674 18.785C267.674 19.775 267.527 20.8567 267.234 22.03C266.94 23.1667 266.5 24.1383 265.914 24.945H250.459ZM257.774 18.4C257.774 17.2633 257.59 16.4933 257.224 16.09C256.857 15.6867 256.417 15.485 255.904 15.485C255.317 15.485 254.767 15.6867 254.254 16.09C253.777 16.4567 253.337 16.97 252.934 17.63C252.53 18.2533 252.164 18.9867 251.834 19.83C251.504 20.6367 251.229 21.4983 251.009 22.415H257.279C257.352 21.975 257.425 21.5167 257.499 21.04C257.572 20.6367 257.627 20.1967 257.664 19.72C257.737 19.2433 257.774 18.8033 257.774 18.4ZM273.002 12.35H281.967L282.792 16.475H283.177C284.02 15.155 285.102 14.0367 286.422 13.12C287.742 12.2033 289.484 11.745 291.647 11.745C291.794 11.745 292.014 11.7633 292.307 11.8C292.637 11.8 292.985 11.855 293.352 11.965C293.755 12.0383 294.159 12.1667 294.562 12.35C295.002 12.4967 295.424 12.7167 295.827 13.01L293.407 24.34H287.412C287.339 22.0667 287.137 20.49 286.807 19.61C286.477 18.6933 285.945 18.235 285.212 18.235C284.845 18.235 284.442 18.3267 284.002 18.51C283.599 18.6567 283.177 19.005 282.737 19.555L279.217 36H267.997L273.002 12.35Z" fill="#DD2B2B"/>
</svg>
