<svg width="195" height="30" viewBox="0 0 195 30" fill="none" xmlns="http://www.w3.org/2000/svg">
<path d="M26.4758 29H20.4358V5.48H13.4358C13.2758 6.70667 13.1024 8.04 12.9158 9.48C12.7558 10.92 12.5691 12.3867 12.3558 13.88C12.1691 15.3467 11.9691 16.7467 11.7558 18.08C11.5424 19.3867 11.3291 20.5467 11.1158 21.56C10.7691 23.2133 10.3024 24.6267 9.71578 25.8C9.15578 26.9733 8.36911 27.8667 7.35578 28.48C6.36911 29.0933 5.07578 29.4 3.47578 29.4C2.94245 29.4 2.43578 29.36 1.95578 29.28C1.47578 29.2 1.02245 29.0933 0.59578 28.96V24C0.942446 24.1067 1.27578 24.2 1.59578 24.28C1.94245 24.36 2.31578 24.4 2.71578 24.4C3.24911 24.4 3.68911 24.2267 4.03578 23.88C4.38245 23.5333 4.68911 22.9467 4.95578 22.12C5.22245 21.2667 5.48911 20.0933 5.75578 18.6C5.88911 17.96 6.04911 17.0533 6.23578 15.88C6.42245 14.68 6.63578 13.28 6.87578 11.68C7.14245 10.0533 7.40911 8.29333 7.67578 6.4C7.94245 4.48 8.19578 2.49333 8.43578 0.439998H26.4758V29ZM56.8405 18.04C56.8405 19.8533 56.5871 21.4667 56.0805 22.88C55.6005 24.2933 54.8938 25.4933 53.9605 26.48C53.0538 27.44 51.9471 28.1733 50.6405 28.68C49.3338 29.16 47.8538 29.4 46.2005 29.4C44.6805 29.4 43.2671 29.16 41.9605 28.68C40.6805 28.1733 39.5738 27.44 38.6405 26.48C37.7071 25.4933 36.9738 24.2933 36.4405 22.88C35.9338 21.4667 35.6805 19.8533 35.6805 18.04C35.6805 15.6133 36.1071 13.5733 36.9605 11.92C37.8138 10.24 39.0405 8.96 40.6405 8.08C42.2405 7.2 44.1338 6.76 46.3205 6.76C48.3738 6.76 50.1871 7.2 51.7605 8.08C53.3338 8.96 54.5738 10.24 55.4805 11.92C56.3871 13.5733 56.8405 15.6133 56.8405 18.04ZM41.7605 18.04C41.7605 19.48 41.9071 20.6933 42.2005 21.68C42.5205 22.64 43.0138 23.3733 43.6805 23.88C44.3471 24.36 45.2138 24.6 46.2805 24.6C47.3471 24.6 48.2005 24.36 48.8405 23.88C49.5071 23.3733 49.9871 22.64 50.2805 21.68C50.6005 20.6933 50.7605 19.48 50.7605 18.04C50.7605 16.6 50.6005 15.4 50.2805 14.44C49.9871 13.48 49.5071 12.76 48.8405 12.28C48.1738 11.8 47.3071 11.56 46.2405 11.56C44.6671 11.56 43.5205 12.1067 42.8005 13.2C42.1071 14.2667 41.7605 15.88 41.7605 18.04ZM80.6461 7.16V11.64H71.5261V29H65.5661V7.16H80.6461ZM107.917 18.04C107.917 19.8533 107.664 21.4667 107.157 22.88C106.677 24.2933 105.97 25.4933 105.037 26.48C104.13 27.44 103.024 28.1733 101.717 28.68C100.41 29.16 98.9304 29.4 97.277 29.4C95.757 29.4 94.3437 29.16 93.037 28.68C91.757 28.1733 90.6504 27.44 89.717 26.48C88.7837 25.4933 88.0504 24.2933 87.517 22.88C87.0104 21.4667 86.757 19.8533 86.757 18.04C86.757 15.6133 87.1837 13.5733 88.037 11.92C88.8904 10.24 90.117 8.96 91.717 8.08C93.317 7.2 95.2104 6.76 97.397 6.76C99.4504 6.76 101.264 7.2 102.837 8.08C104.41 8.96 105.65 10.24 106.557 11.92C107.464 13.5733 107.917 15.6133 107.917 18.04ZM92.837 18.04C92.837 19.48 92.9837 20.6933 93.277 21.68C93.597 22.64 94.0904 23.3733 94.757 23.88C95.4237 24.36 96.2904 24.6 97.357 24.6C98.4237 24.6 99.277 24.36 99.917 23.88C100.584 23.3733 101.064 22.64 101.357 21.68C101.677 20.6933 101.837 19.48 101.837 18.04C101.837 16.6 101.677 15.4 101.357 14.44C101.064 13.48 100.584 12.76 99.917 12.28C99.2504 11.8 98.3837 11.56 97.317 11.56C95.7437 11.56 94.597 12.1067 93.877 13.2C93.1837 14.2667 92.837 15.88 92.837 18.04ZM134.332 11.64H127.172V29H121.212V11.64H114.052V7.16H134.332V11.64ZM147.921 15.8C147.921 16.2533 147.895 16.8133 147.841 17.48C147.815 18.1467 147.775 18.8267 147.721 19.52C147.695 20.2133 147.655 20.8267 147.601 21.36C147.548 21.8933 147.508 22.2667 147.481 22.48L157.561 7.16H164.721V29H158.961V20.28C158.961 19.56 158.988 18.7733 159.041 17.92C159.095 17.04 159.148 16.2267 159.201 15.48C159.281 14.7067 159.335 14.12 159.361 13.72L149.321 29H142.161V7.16H147.921V15.8ZM194.59 7.16V29H188.63V11.64H180.71V29H174.75V7.16H194.59Z" fill="white"/>
</svg>
