<svg width="110" height="90" fill="none" xmlns="http://www.w3.org/2000/svg"><path fill="#D9D9D9" d="M0 0h110v90H0z"/><path d="M70.5 27c6.5-1.5 12.5 9 0 12M39 25.5h31V41c-5 6-18.2 14.4-31 0V25.5Z" stroke="#000" stroke-width="3"/><path d="M47.5 11v12M54.5 11v12M61.5 11v12" stroke="#000" stroke-width="2"/><path d="M33 53.5h43" stroke="#000" stroke-width="3"/><path d="m44.188 78-3-4.006h-1.074V78h-1.057v-8.727h1.057v3.784h.46l3.494-3.784h1.262L41.8 73.108 45.45 78h-1.261Zm9.58-4.364c0 .92-.166 1.716-.498 2.387-.333.67-.789 1.187-1.368 1.55-.58.365-1.242.546-1.986.546s-1.406-.181-1.986-.545c-.58-.364-1.035-.88-1.368-1.551-.332-.67-.498-1.466-.498-2.387 0-.92.166-1.715.498-2.386.333-.67.788-1.188 1.368-1.551.58-.364 1.242-.546 1.986-.546s1.406.182 1.986.546c.58.364 1.035.88 1.367 1.551.333.67.5 1.466.5 2.386Zm-1.023 0c0-.755-.126-1.393-.379-1.913-.25-.52-.59-.913-1.018-1.18a2.642 2.642 0 0 0-1.432-.401c-.529 0-1.007.134-1.436.4-.426.268-.766.661-1.019 1.181-.25.52-.375 1.158-.375 1.913 0 .756.125 1.394.375 1.914.253.52.593.913 1.019 1.18.429.267.907.4 1.436.4a2.64 2.64 0 0 0 1.432-.4c.429-.267.768-.66 1.018-1.18.253-.52.38-1.158.38-1.914Zm5.8-3.323h1.38c.649 0 1.224.144 1.727.434.502.29.897.693 1.184 1.21.287.517.43 1.117.43 1.799 0 .681-.143 1.282-.43 1.802-.287.52-.681.926-1.184 1.219-.503.293-1.078.439-1.726.439h-1.38c-.649 0-1.224-.145-1.727-.435a3.11 3.11 0 0 1-1.184-1.21c-.287-.517-.43-1.117-.43-1.798 0-.682.143-1.283.43-1.803.287-.52.681-.926 1.184-1.219.503-.292 1.078-.439 1.726-.439Zm0 .937c-.494 0-.912.104-1.253.311-.338.207-.595.5-.771.878-.173.378-.26.822-.26 1.334 0 .505.087.946.26 1.32.176.376.433.667.771.874.341.208.759.311 1.253.311h1.38c.495 0 .911-.103 1.25-.31.34-.208.597-.5.77-.879.177-.377.265-.822.265-1.333 0-.506-.088-.946-.264-1.321a1.958 1.958 0 0 0-.772-.874c-.338-.207-.754-.311-1.248-.311h-1.38Zm1.227-2.13v9.238h-1.056v-9.239h1.056ZM65.037 78v-8.727h5.267v.937h-4.21v2.95h3.938v.937h-3.938v2.966h4.279V78h-5.336Z" fill="#000"/></svg>