<svg width="110" height="90" fill="none" xmlns="http://www.w3.org/2000/svg"><path fill="#D9D9D9" d="M0 0h110v90H0z"/><path d="M37 37.5h36.5M48.5 48.5V60m-13-15c-1.167 0-3.5-.6-3.5-3V19.5c0-.667.6-2.3 3-3.5h40c1 .167 3 1.1 3 3.5V42c0 1-.6 3-3 3H35.5ZM54.5 48.5V60M60.5 48.5V60" stroke="#000" stroke-width="3"/><path d="m14.188 78-3-4.006h-1.074V78H9.057v-8.727h1.057v3.784h.46l3.494-3.784h1.261l-3.528 3.835L15.45 78h-1.261Zm9.58-4.364c0 .92-.166 1.716-.498 2.387-.333.67-.789 1.187-1.368 1.55-.58.365-1.242.546-1.986.546s-1.406-.181-1.986-.545c-.58-.364-1.035-.88-1.368-1.551-.332-.67-.498-1.466-.498-2.387 0-.92.166-1.715.498-2.386.332-.67.788-1.188 1.368-1.551.58-.364 1.242-.546 1.986-.546s1.406.182 1.986.546c.58.364 1.035.88 1.367 1.551.333.67.5 1.466.5 2.386Zm-1.023 0c0-.755-.126-1.393-.379-1.913-.25-.52-.59-.913-1.018-1.18a2.642 2.642 0 0 0-1.432-.401c-.529 0-1.007.134-1.436.4-.426.268-.766.661-1.019 1.181-.25.52-.375 1.158-.375 1.913 0 .756.125 1.394.375 1.914.253.52.593.913 1.019 1.18.429.267.907.4 1.436.4a2.64 2.64 0 0 0 1.432-.4c.429-.267.768-.66 1.018-1.18.253-.52.38-1.158.38-1.914Zm2.8 4.364v-8.727h1.057v3.886h4.653v-3.886h1.057V78h-1.057v-3.903h-4.653V78h-1.057Zm8.133 2.114v-3.052h.562c.194-.176.375-.424.546-.745.173-.324.32-.756.439-1.296.122-.542.203-1.231.243-2.067l.187-3.681h5.182v7.79h1.006v3.034h-1.006V78h-6.153v2.114h-1.006Zm1.824-3.052h4.33V70.21H36.61l-.137 2.745a15.956 15.956 0 0 1-.179 1.73c-.085.514-.194.97-.328 1.368a4.72 4.72 0 0 1-.464 1.01Zm7.938-7.79h1.04v6.87h.085l4.772-6.87h1.023V78h-1.057v-6.852h-.085L44.462 78H43.44v-8.727Zm16.45 7.722-.12 3.069h-1.09V78h-.614v-1.006h1.824ZM52.475 78v-8.727h1.005v7.755h4.5v-7.755h1.006V78h-6.511Zm9.011-8.727h1.04v6.869h.085l4.773-6.87h1.023V78H67.35v-6.852h-.085L62.509 78h-1.023v-8.727Zm16.4 4.363c0 .92-.167 1.716-.5 2.387-.332.67-.788 1.187-1.367 1.55-.58.365-1.242.546-1.986.546s-1.406-.181-1.986-.545c-.58-.364-1.035-.88-1.368-1.551-.332-.67-.498-1.466-.498-2.387 0-.92.166-1.715.498-2.386.333-.67.789-1.188 1.368-1.551.58-.364 1.242-.546 1.986-.546s1.406.182 1.986.546c.58.364 1.035.88 1.368 1.551.332.67.498 1.466.498 2.386Zm-1.023 0c0-.755-.127-1.393-.38-1.913-.25-.52-.59-.913-1.018-1.18a2.641 2.641 0 0 0-1.432-.401c-.528 0-1.007.134-1.436.4-.426.268-.766.661-1.018 1.181-.25.52-.375 1.158-.375 1.913 0 .756.125 1.394.375 1.914.252.52.592.913 1.018 1.18.429.267.908.4 1.436.4a2.64 2.64 0 0 0 1.432-.4c.429-.267.768-.66 1.018-1.18.253-.52.38-1.158.38-1.914Zm2.8 4.364v-8.727h1.056v3.886h4.654v-3.886h1.056V78h-1.056v-3.903h-4.654V78h-1.057Zm8.882 0v-8.727h5.267v.937h-4.21v2.95h3.937v.937h-3.937v2.966h4.278V78h-5.335Zm7.172 0v-8.727h2.949c.684 0 1.244.123 1.679.37.437.245.761.576.971.993.211.418.316.884.316 1.398 0 .514-.105.982-.316 1.402a2.34 2.34 0 0 1-.963 1.006c-.434.247-.991.37-1.67.37h-2.114v-.937h2.08c.469 0 .845-.081 1.13-.243.283-.162.489-.38.617-.656.131-.279.196-.593.196-.942 0-.35-.065-.662-.196-.937a1.398 1.398 0 0 0-.622-.648c-.287-.16-.668-.239-1.142-.239h-1.858V78h-1.057Z" fill="#000"/></svg>