<svg width="110" height="90" fill="none" xmlns="http://www.w3.org/2000/svg"><path fill="#D9D9D9" d="M0 0h110v90H0z"/><path d="M34 24.5h-2V54c5.167-.5 17.2-.9 24 1.5 3.167-.833 12.4-2.3 24-1.5V24.5h-2M71.5 13l4.5 5" stroke="#000" stroke-width="3"/><path d="M49.327 37.659c0-.197.13-.508.353-.558.294-.065.353.182.353.134" stroke="#000" stroke-width="3" stroke-linecap="round"/><path d="M56.5 35v17.5c2.333-1.5 9.6-4.4 20-4V18M56.5 28.5V22c1-.5 4.2-1.6 9-2M35.5 19c5.833-.167 18.2.4 21 4" stroke="#000" stroke-width="3"/><path d="M56.5 52.5c-1.667-1.833-8.2-5.2-21-4v-31" stroke="#000" stroke-width="3"/><path d="M72.5 13.5 49 35.5 48 39l5.5-1.5 22-20.5" stroke="#000" stroke-width="2"/><path d="M16.08 72h-1.057a2.196 2.196 0 0 0-.89-1.38 2.385 2.385 0 0 0-.73-.359 2.908 2.908 0 0 0-.835-.119c-.528 0-1.007.134-1.436.4-.426.268-.765.661-1.018 1.181-.25.52-.375 1.158-.375 1.913 0 .756.125 1.394.375 1.914.252.52.592.913 1.018 1.18.43.267.908.4 1.436.4.29 0 .568-.04.835-.119.268-.08.51-.197.73-.353a2.245 2.245 0 0 0 .89-1.385h1.056a3.52 3.52 0 0 1-.434 1.197 3.273 3.273 0 0 1-1.837 1.458c-.386.127-.8.191-1.24.191-.744 0-1.406-.181-1.986-.545-.58-.364-1.035-.88-1.368-1.551-.332-.67-.498-1.466-.498-2.387 0-.92.166-1.715.498-2.386.333-.67.789-1.188 1.368-1.551.58-.364 1.242-.546 1.986-.546.44 0 .854.064 1.24.192.39.128.74.316 1.053.563.312.244.574.542.784.895.21.349.355.748.434 1.197Zm1.23-1.79v-.937h6.546v.937H21.11V78h-1.057v-7.79H17.31Zm15.177 3.426c0 .92-.166 1.716-.499 2.387-.332.67-.788 1.187-1.368 1.55-.58.365-1.241.546-1.985.546-.745 0-1.407-.181-1.986-.545-.58-.364-1.036-.88-1.368-1.551-.332-.67-.499-1.466-.499-2.387 0-.92.166-1.715.499-2.386.332-.67.788-1.188 1.368-1.551.58-.364 1.241-.546 1.986-.546.744 0 1.406.182 1.985.546.58.364 1.036.88 1.368 1.551.333.67.499 1.466.499 2.386Zm-1.023 0c0-.755-.126-1.393-.38-1.913-.25-.52-.589-.913-1.018-1.18a2.641 2.641 0 0 0-1.431-.401c-.529 0-1.008.134-1.437.4-.426.268-.765.661-1.018 1.181-.25.52-.375 1.158-.375 1.913 0 .756.125 1.394.375 1.914.253.52.592.913 1.018 1.18.43.267.908.4 1.437.4a2.64 2.64 0 0 0 1.431-.4c.43-.267.769-.66 1.019-1.18.253-.52.38-1.158.38-1.914ZM33.514 78v-.972h.255c.364 0 .647-.116.849-.349.201-.233.346-.61.434-1.13.091-.52.152-1.208.183-2.066l.154-4.21h5.318V78H39.65v-7.79h-3.255l-.137 3.478c-.034.914-.118 1.693-.251 2.335-.134.642-.368 1.132-.703 1.47-.336.338-.824.507-1.466.507h-.324Zm15.475.12c-.563 0-1.064-.097-1.504-.29a2.575 2.575 0 0 1-1.044-.806 2.164 2.164 0 0 1-.418-1.206h1.074c.023.281.12.524.29.729.17.202.393.358.669.469.275.11.58.166.916.166.375 0 .707-.066.997-.196.29-.13.517-.313.682-.546.165-.233.247-.502.247-.81 0-.32-.08-.603-.239-.847a1.58 1.58 0 0 0-.698-.58c-.307-.14-.682-.209-1.125-.209h-.7v-.937h.7c.346 0 .65-.063.912-.188a1.417 1.417 0 0 0 .844-1.33c0-.295-.066-.552-.197-.77a1.34 1.34 0 0 0-.554-.512 1.793 1.793 0 0 0-.835-.183c-.301 0-.585.055-.852.166-.264.108-.48.266-.648.473a1.232 1.232 0 0 0-.273.742h-1.022c.017-.458.154-.858.413-1.202a2.603 2.603 0 0 1 1.014-.81c.42-.193.882-.29 1.385-.29.54 0 1.003.11 1.39.328.386.216.683.502.89.857.207.355.311.739.311 1.15 0 .492-.13.911-.388 1.258a1.965 1.965 0 0 1-1.044.72v.068c.551.091.982.325 1.291.703.31.375.465.84.465 1.394 0 .474-.13.9-.388 1.278-.256.375-.605.67-1.048.886-.443.216-.948.324-1.513.324Zm5.203-.12h-1.108l3.205-8.727h1.09L60.585 78h-1.108l-2.608-7.347H56.8L54.192 78Zm.41-3.41h4.465v.938h-4.466v-.937ZM67.073 78l-3-4.006H63V78h-1.056v-8.727H63v3.784h.46l3.495-3.784h1.261l-3.528 3.835L68.336 78h-1.262Zm2.985 0h-1.108l3.205-8.727h1.09L76.452 78h-1.108l-2.608-7.347h-.068L70.06 78Zm.41-3.41h4.465v.938h-4.466v-.937Zm10.137 3.53c-.562 0-1.064-.097-1.504-.29a2.575 2.575 0 0 1-1.044-.806 2.164 2.164 0 0 1-.418-1.206h1.074c.023.281.12.524.29.729.17.202.393.358.669.469.275.11.58.166.916.166.375 0 .707-.066.997-.196.29-.13.517-.313.682-.546.165-.233.247-.502.247-.81 0-.32-.08-.603-.238-.847a1.58 1.58 0 0 0-.7-.58c-.306-.14-.681-.209-1.124-.209h-.7v-.937h.7c.346 0 .65-.063.912-.188a1.417 1.417 0 0 0 .844-1.33c0-.295-.066-.552-.197-.77a1.34 1.34 0 0 0-.553-.512 1.793 1.793 0 0 0-.836-.183c-.3 0-.585.055-.852.166-.264.108-.48.266-.648.473a1.232 1.232 0 0 0-.273.742h-1.022c.017-.458.155-.858.413-1.202a2.602 2.602 0 0 1 1.014-.81c.42-.193.882-.29 1.385-.29.54 0 1.003.11 1.39.328.386.216.683.502.89.857.207.355.311.739.311 1.15 0 .492-.13.911-.388 1.258a1.965 1.965 0 0 1-1.044.72v.068c.551.091.982.325 1.292.703.31.375.464.84.464 1.394 0 .474-.13.9-.388 1.278-.255.375-.605.67-1.048.886-.443.216-.948.324-1.513.324Zm12.209-4.484c0 .92-.166 1.716-.499 2.387-.332.67-.788 1.187-1.368 1.55-.579.365-1.241.546-1.985.546-.745 0-1.406-.181-1.986-.545-.58-.364-1.036-.88-1.368-1.551-.332-.67-.499-1.466-.499-2.387 0-.92.167-1.715.499-2.386.332-.67.788-1.188 1.368-1.551.58-.364 1.241-.546 1.986-.546.744 0 1.406.182 1.986.546.58.364 1.035.88 1.367 1.551.333.67.499 1.466.499 2.386Zm-1.023 0c0-.755-.126-1.393-.379-1.913-.25-.52-.59-.913-1.019-1.18a2.641 2.641 0 0 0-1.431-.401c-.529 0-1.007.134-1.436.4-.427.268-.766.661-1.019 1.181-.25.52-.375 1.158-.375 1.913 0 .756.125 1.394.375 1.914.253.52.593.913 1.019 1.18.429.267.907.4 1.436.4a2.64 2.64 0 0 0 1.431-.4c.43-.267.769-.66 1.019-1.18.253-.52.38-1.158.38-1.914Zm2.8 4.364v-8.727h3.051c.608 0 1.11.105 1.504.315.395.208.69.487.882.84.194.349.29.737.29 1.163 0 .375-.067.685-.2.929-.13.244-.304.437-.52.58a2.365 2.365 0 0 1-.695.315v.085c.267.017.536.11.806.281.27.17.496.415.677.733.182.318.273.708.273 1.168 0 .437-.099.83-.298 1.18-.199.35-.513.627-.942.831-.429.205-.987.307-1.675.307h-3.153Zm1.057-.938h2.096c.69 0 1.18-.133 1.47-.4.293-.27.44-.597.44-.98 0-.296-.076-.568-.226-.818a1.634 1.634 0 0 0-.644-.606c-.278-.153-.608-.23-.989-.23H95.65v3.034Zm0-3.954h1.96c.318 0 .605-.063.86-.188.26-.124.464-.3.615-.528.153-.227.23-.494.23-.801 0-.384-.134-.709-.401-.976-.267-.27-.69-.405-1.27-.405H95.65v2.898Z" fill="#000"/></svg>