<svg width="108" height="108" fill="none" xmlns="http://www.w3.org/2000/svg"><circle cx="54" cy="54" r="54" fill="url(#a)"/><path d="M44.453 42.067c-.685-16.614-5.422-20.108-7.705-19.778-15.753.79-11.415 20.438-7.277 30.162 19.177 30.46 39.383 33.789 47.088 31.646 6.507-5.143 7.277-11.043 6.85-13.35-6.508-9.099-12.7-9.066-14.983-7.912-3.767 5.538-4.71 5.933-4.71 5.439-13.27-3.461-20.547-14.834-22.26-16.812-1.37-1.582-.57-3.956 0-4.945l2.997-4.45Z" fill="#E3E3E3"/><defs><linearGradient id="a" x1="54" y1="0" x2="54" y2="108" gradientUnits="userSpaceOnUse"><stop stop-color="#717171"/><stop offset="1" stop-color="#2C2C2C"/></linearGradient></defs></svg>